<svg width="378" height="64" fill="none" xmlns="http://www.w3.org/2000/svg"><path d="M156.451 27.435c3.026 0 4.546-.81 4.546-2.725 0-2.166-1.646-2.935-4.937-2.935h-2.495v5.66h2.886zm-.837-9.587c2.482 0 3.723-.434 3.723-2.558 0-2.027-1.338-2.837-4.03-2.837h-1.756v5.395h2.063zm-7.808-9.77h8.338c5.815 0 8.841 2.097 8.841 6.583 0 1.985-1.186 3.466-2.385 4.249v.07c1.618.573 4.1 2.334 4.1 5.59 0 4.36-2.552 7.352-9.552 7.352h-9.356V8.078h.014zM179.584 27.226v-2.907l-2.761.07c-1.645.042-2.858.573-2.858 1.914 0 1.09 1.045 1.552 2.049 1.552 1.074.014 2.343-.294 3.57-.63zm-11.072-.573c0-4.654 4.239-5.59 7.865-5.59h3.193v-1.147c0-1.621-1.046-2.096-3.333-2.096-1.812 0-3.764.405-5.48.81l-1.115-4.08c2.091-.811 4.504-1.482 7.446-1.482 5.689 0 7.976 1.607 7.976 5.758v8.19c0 .615.599.741 1.645.783l-.209 4.249c-.432.028-.878.028-1.311.028-2.217 0-4.573-.364-5.075-1.957-1.353 1.048-3.263 2.082-5.285 2.082-4.044.014-6.317-1.872-6.317-5.548zM189.456 13.515h5.62v1.845c1.115-.839 3.528-2.334 5.996-2.334 5.744 0 6.149 3.172 6.149 7.351v11.545h-5.592v-11.07c0-2.53-.571-2.962-2.454-2.962-1.673 0-3.193.545-4.099.978v13.054h-5.62V13.515zM210.846 6.499h5.606v13.823l5.089-6.807h6.024L220.872 22l7.795 9.923h-6.93l-5.285-7.603v7.603h-5.606V6.499z" fill="#DC1734"/><path d="M5.843 12.9V5.856h11.42v11.446h-2.566l-6.302-6.33-.321-.308L5.843 12.9z" fill="#008355"/><path d="M0 20l8.074-8.106L16.147 20l-1.813 1.817H4.978v3.158L0 20z" fill="#DC1734"/><path d="M5.843 34.144h7.041l-1.924-1.929-.307-.307 6.61-6.64v-2.57H5.843v11.446z" fill="#008355"/><path d="M19.954 40l-8.074-8.092 8.074-8.093 1.827 1.817v9.378h3.15L19.955 40z" fill="#DC1734"/><path d="M34.065 34.144h-11.42V22.697h2.58l6.302 6.318.307.307.307-.307 1.924-1.93v7.059z" fill="#008355"/><path d="M39.908 20l-8.074 8.092L23.761 20l1.826-1.831h9.357V15.01L39.907 20z" fill="#DC1734"/><path d="M34.065 5.856v11.446h-11.42v-2.585L28.948 8.4l.32-.308-.32-.307-1.91-1.929h7.027z" fill="#008355"/><path d="M28.027 8.092l-8.073 8.092-1.813-1.83V4.976H14.99L19.954 0l8.073 8.092z" fill="#DC1734"/><path d="M60.572 8.078h-9.244v23.844h5.758v-6.737h1.744c7.097 0 10.931-3.941 10.931-8.637 0-5.339-3.834-8.47-9.189-8.47zm-1.547 12.677h-1.953v-8.19h2.761c3.068 0 4.044 1.719 4.044 4.109 0 2.222-1.283 4.08-4.852 4.08zm69.357-12.677h-7.809l-8.004 23.844h5.927l2.258-6.974h7.474l2.259 6.974h5.926l-8.031-23.844zm-6.303 12.719l2.385-9.183 2.384 9.183h-4.769zM76.985 8.078L68.98 31.922h5.912l2.245-6.974h7.474l2.259 6.974h5.926L84.793 8.078h-7.809zm1.52 12.719l2.384-9.183 2.384 9.183h-4.769zm21.78-6.485c0-1.02.739-1.929 3.137-1.929 2.44 0 3.89.475 5.647.979l1.646-3.998c-1.855-.81-3.681-1.635-7.474-1.635-4.225 0-8.59 1.999-8.59 6.61 0 8.135 11.365 7.087 11.365 10.972 0 1.454-1.311 2.348-4.197 2.348-2.636 0-4.198-.335-6.331-1.09l-1.617 4.137c1.617.88 3.639 1.551 6.902 1.677.153.601.334 1.23.334 1.817 0 1.188-1.715 1.859-2.565 2.376l1.924 3.382c2.12-.88 5.341-2.376 5.341-5.115 0-.95-.377-1.9-.753-2.74h-.028c3.709-.726 6.804-2.865 6.804-6.988.028-7.617-11.545-7.617-11.545-10.803z" fill="#008355"/></svg>